<?xml version="1.0" encoding="UTF-8"?>
<!DOCTYPE svg PUBLIC "-//W3C//DTD SVG 1.1//EN" "http://www.w3.org/Graphics/SVG/1.1/DTD/svg11.dtd">
<svg xmlns="http://www.w3.org/2000/svg" version="1.1" width="1254px" height="1254px" style="shape-rendering:geometricPrecision; text-rendering:geometricPrecision; image-rendering:optimizeQuality; fill-rule:evenodd; clip-rule:evenodd" xmlns:xlink="http://www.w3.org/1999/xlink">
<g><path style="opacity:1" fill="#eaeaea" d="M 610.5,363.5 C 693.239,361.451 762.072,391.117 817,452.5C 843.129,484.824 860.462,521.491 869,562.5C 875.268,551.618 882.268,541.285 890,531.5C 892.723,532.208 893.723,533.875 893,536.5C 884.831,548.834 877.164,561.501 870,574.5C 868.274,575.576 866.441,575.743 864.5,575C 853.57,565.401 842.07,556.567 830,548.5C 828.833,544.333 830.333,542.833 834.5,544C 843.949,550.448 853.116,557.282 862,564.5C 844.753,482.579 797.92,424.413 721.5,390C 637.292,356.985 557.626,365.319 482.5,415C 435.786,448.223 405.286,492.723 391,548.5C 389.867,550.211 388.367,550.711 386.5,550C 385.398,547.599 385.231,545.099 386,542.5C 408.999,464.166 458.499,409.999 534.5,380C 559.21,370.985 584.543,365.485 610.5,363.5 Z"/></g>
<g><path style="opacity:1;fill-rule:evenodd" fill="#e9e9e9" d="M 615.5,593.5 C 636.753,590.442 648.753,599.442 651.5,620.5C 648.392,642.064 636.059,650.897 614.5,647C 598.985,638.79 593.818,626.29 599,609.5C 602.413,601.919 607.913,596.586 615.5,593.5 Z M 616.5,599.5 C 636.779,597.358 646.279,606.358 645,626.5C 637.831,641.668 626.665,645.501 611.5,638C 601.709,629.014 600.209,618.848 607,607.5C 609.772,604.217 612.939,601.55 616.5,599.5 Z"/></g>
<g><path style="opacity:1" fill="#eaeaea" d="M 381.5,647.5 C 383.199,647.34 384.866,647.506 386.5,648C 397.04,657.542 407.873,666.709 419,675.5C 420.167,679.667 418.667,681.167 414.5,680C 405.722,673.19 397.222,666.023 389,658.5C 389.315,666.251 390.481,673.918 392.5,681.5C 392.28,685.353 390.447,686.353 387,684.5C 384.86,676.27 383.193,667.936 382,659.5C 376.333,667.833 370.667,676.167 365,684.5C 363.446,687.102 361.28,688.269 358.5,688C 357.446,686.612 357.28,685.112 358,683.5C 366.093,671.642 373.926,659.642 381.5,647.5 Z"/></g>
<g><path style="opacity:1" fill="#e4e5e5" d="M 864.5,647.5 C 868.305,647.643 869.971,649.643 869.5,653.5C 868.994,659.221 868.161,664.888 867,670.5C 863.889,672.272 862.056,671.439 861.5,668C 861.911,661.018 862.911,654.184 864.5,647.5 Z"/></g>
<g><path style="opacity:1" fill="#ebebeb" d="M 857.5,692.5 C 860.121,692.477 861.455,693.811 861.5,696.5C 859.97,702.59 858.137,708.59 856,714.5C 855.309,717.591 853.476,718.757 850.5,718C 849.941,717.275 849.608,716.442 849.5,715.5C 851.793,707.616 854.46,699.949 857.5,692.5 Z"/></g>
<g><path style="opacity:1" fill="#ebeaeb" d="M 396.5,707.5 C 398.911,707.137 400.411,708.137 401,710.5C 403.117,716.736 405.784,722.736 409,728.5C 410.167,732.667 408.667,734.167 404.5,733C 400.791,725.887 397.457,718.553 394.5,711C 394.978,709.697 395.645,708.531 396.5,707.5 Z"/></g>
<g><path style="opacity:1" fill="#e6e6e6" d="M 838.5,738.5 C 842.225,738.78 843.392,740.78 842,744.5C 838.919,750.331 835.585,755.998 832,761.5C 828.086,763.039 826.419,761.706 827,757.5C 831.347,751.471 835.18,745.138 838.5,738.5 Z"/></g>
<g><path style="opacity:1" fill="#eaeaea" d="M 420.5,753.5 C 421.675,753.281 422.675,753.614 423.5,754.5C 428.59,760.915 433.257,767.581 437.5,774.5C 436.904,777.246 435.237,778.08 432.5,777C 427.089,770.841 422.422,764.174 418.5,757C 418.978,755.697 419.645,754.531 420.5,753.5 Z"/></g>
<g><path style="opacity:1" fill="#eeeeee" d="M 809.5,779.5 C 813.677,778.842 815.177,780.508 814,784.5C 809.167,789.333 804.333,794.167 799.5,799C 795.103,800.106 793.77,798.606 795.5,794.5C 800.894,790.108 805.561,785.108 809.5,779.5 Z"/></g>
<g><path style="opacity:1" fill="#eaeaea" d="M 454.5,794.5 C 455.873,794.343 457.207,794.51 458.5,795C 464.909,800.287 471.409,805.454 478,810.5C 479.167,814.667 477.667,816.167 473.5,815C 467.022,810.023 460.688,804.856 454.5,799.5C 453.334,797.833 453.334,796.166 454.5,794.5 Z"/></g>
<g><path style="opacity:1" fill="#e4e3e4" d="M 772.5,812.5 C 776.485,812.629 777.818,814.463 776.5,818C 769.9,822.55 763.067,826.716 756,830.5C 752.993,829.82 752.16,828.154 753.5,825.5C 760.149,821.499 766.482,817.166 772.5,812.5 Z"/></g>
<g><path style="opacity:1" fill="#e7e8e7" d="M 501.5,826.5 C 502.873,826.343 504.207,826.51 505.5,827C 512.379,830.606 519.379,833.939 526.5,837C 529.167,838.667 529.167,840.333 526.5,842C 524.833,842.667 523.167,842.667 521.5,842C 514.833,838.667 508.167,835.333 501.5,832C 500.248,830.172 500.248,828.339 501.5,826.5 Z"/></g>
<g><path style="opacity:1" fill="#e9e9e9" d="M 724.5,838.5 C 726.5,838.5 728.5,838.5 730.5,838.5C 730.785,840.288 730.452,841.955 729.5,843.5C 721.784,846.794 713.951,849.794 706,852.5C 702.822,851.615 701.989,849.782 703.5,847C 710.8,844.629 717.8,841.796 724.5,838.5 Z"/></g>
<g><path style="opacity:1" fill="#e5e5e5" d="M 552.5,847.5 C 560.311,848.202 567.978,849.702 575.5,852C 577.283,853.067 577.783,854.567 577,856.5C 569.009,857.223 561.176,856.056 553.5,853C 551.365,851.444 551.032,849.611 552.5,847.5 Z"/></g>
<g><path style="opacity:1" fill="#e9e9e9" d="M 674.5,853.5 C 676.948,853.085 678.281,854.085 678.5,856.5C 678.41,858.425 677.41,859.592 675.5,860C 668.187,861.258 660.854,861.924 653.5,862C 650.833,860.333 650.833,858.667 653.5,857C 660.634,855.77 667.634,854.603 674.5,853.5 Z"/></g>
<g><path style="opacity:1" fill="#e8e8e8" d="M 602.5,856.5 C 610.517,856.668 618.517,857.168 626.5,858C 627.833,859.667 627.833,861.333 626.5,863C 618.196,863.919 610.03,863.419 602,861.5C 601.36,859.735 601.527,858.068 602.5,856.5 Z"/></g>
</svg>
