<?xml version="1.0" encoding="UTF-8"?>
<!DOCTYPE svg PUBLIC "-//W3C//DTD SVG 1.1//EN" "http://www.w3.org/Graphics/SVG/1.1/DTD/svg11.dtd">
<svg xmlns="http://www.w3.org/2000/svg" version="1.1" width="1254px" height="1254px" style="shape-rendering:geometricPrecision; text-rendering:geometricPrecision; image-rendering:optimizeQuality; fill-rule:evenodd; clip-rule:evenodd" xmlns:xlink="http://www.w3.org/1999/xlink">
<g><path style="opacity:1" fill="#e6e6e6" d="M 449.5,435.5 C 460.557,436.179 463.724,441.512 459,451.5C 451.973,456.545 446.639,455.212 443,447.5C 442.807,442.22 444.973,438.22 449.5,435.5 Z"/></g>
<g><path style="opacity:1" fill="#e5e5e5" d="M 815.5,492.5 C 823.014,491.752 827.348,495.086 828.5,502.5C 826.786,510.029 822.12,512.863 814.5,511C 807.712,504.527 808.046,498.361 815.5,492.5 Z"/></g>
<g><path style="opacity:1" fill="#7a7a7a" d="M 470.5,523.5 C 460.092,523.204 449.758,523.87 439.5,525.5C 442.203,524.037 445.203,523.204 448.5,523C 456.012,522.178 463.345,522.345 470.5,523.5 Z"/></g>
<g><path style="opacity:1" fill="#e6e6e6" d="M 470.5,523.5 C 494.009,526.754 514.676,536.254 532.5,552C 542.444,560.939 551.278,570.772 559,581.5C 569.39,597.05 579.556,612.716 589.5,628.5C 587.915,629.533 586.581,630.866 585.5,632.5C 574.648,614.8 563.148,597.467 551,580.5C 538.73,565.563 524.563,552.73 508.5,542C 475.966,523.079 443.299,522.746 410.5,541C 388.751,555.415 370.251,573.248 355,594.5C 333.789,619.867 306.956,635.867 274.5,642.5C 272.735,641.539 270.735,641.205 268.5,641.5C 297.722,635.306 322.888,621.639 344,600.5C 354.041,589.461 363.708,578.127 373,566.5C 386.573,551.587 402.407,539.754 420.5,531C 426.716,528.464 433.05,526.63 439.5,525.5C 449.758,523.87 460.092,523.204 470.5,523.5 Z"/></g>
<g><path style="opacity:1" fill="#e4e4e4" d="M 800.5,643.5 C 799.542,643.047 798.708,642.381 798,641.5C 797.329,642.252 796.496,642.586 795.5,642.5C 810.65,617.851 831.316,599.351 857.5,587C 874.734,580.213 892.4,578.879 910.5,583C 920.378,584.886 930.044,587.553 939.5,591C 956.421,597.863 973.421,604.529 990.5,611C 1001.3,614.116 1012.3,616.116 1023.5,617C 1012.73,617.928 1002.07,617.262 991.5,615C 970.102,607.534 948.768,599.867 927.5,592C 905.652,584.439 883.652,583.772 861.5,590C 835.362,601.31 815.029,619.144 800.5,643.5 Z"/></g>
<g><path style="opacity:1" fill="#e6e6e6" d="M 589.5,628.5 C 592.278,633.118 595.278,637.618 598.5,642C 649.334,642.441 700.167,642.941 751,643.5C 766.004,643.5 780.837,643.167 795.5,642.5C 796.496,642.586 797.329,642.252 798,641.5C 798.708,642.381 799.542,643.047 800.5,643.5C 895.169,643.167 989.836,643.5 1084.5,644.5C 1082.23,645.314 1079.9,645.814 1077.5,646C 983.832,646.527 890.166,647.193 796.5,648C 794.601,650.988 792.601,653.821 790.5,656.5C 789.833,655.5 789.167,654.5 788.5,653.5C 789.167,652.167 789.833,650.833 790.5,649.5C 791.043,649.44 791.376,649.107 791.5,648.5C 776.848,647.501 762.182,647.167 747.5,647.5C 699.153,645.846 650.819,646.179 602.5,648.5C 615.691,670.202 631.357,690.035 649.5,708C 655.02,712.03 660.353,716.197 665.5,720.5C 665.33,721.822 665.663,722.989 666.5,724C 665.906,724.464 665.239,724.631 664.5,724.5C 658.796,721.642 653.463,718.142 648.5,714C 627.836,694.456 610.17,672.622 595.5,648.5C 454.501,647.696 313.501,647.529 172.5,648C 171.328,647.581 170.328,646.915 169.5,646C 170.949,644.883 172.616,644.216 174.5,644C 200.5,643.667 226.5,643.333 252.5,643C 257.854,642.609 263.188,642.109 268.5,641.5C 270.735,641.205 272.735,641.539 274.5,642.5C 274.167,642.5 273.833,642.5 273.5,642.5C 272.624,642.369 271.957,642.702 271.5,643.5C 293.33,644.828 314.996,644.828 336.5,643.5C 412.833,643.5 489.167,643.5 565.5,643.5C 574.192,643.831 582.859,643.498 591.5,642.5C 591.376,641.893 591.043,641.56 590.5,641.5C 589.099,638.366 587.432,635.366 585.5,632.5C 586.581,630.866 587.915,629.533 589.5,628.5 Z"/></g>
<g><path style="opacity:1" fill="#7b7d7c" d="M 273.5,642.5 C 294.327,643.497 315.327,643.831 336.5,643.5C 314.996,644.828 293.33,644.828 271.5,643.5C 271.957,642.702 272.624,642.369 273.5,642.5 Z"/></g>
<g><path style="opacity:1" fill="#4a4a4a" d="M 590.5,641.5 C 591.043,641.56 591.376,641.893 591.5,642.5C 582.859,643.498 574.192,643.831 565.5,643.5C 573.833,642.833 582.167,642.167 590.5,641.5 Z"/></g>
<g><path style="opacity:1" fill="#4e4f4d" d="M 747.5,647.5 C 762.182,647.167 776.848,647.501 791.5,648.5C 791.376,649.107 791.043,649.44 790.5,649.5C 776.167,648.833 761.833,648.167 747.5,647.5 Z"/></g>
<g><path style="opacity:1" fill="#dfdfdf" d="M 788.5,653.5 C 789.167,654.5 789.833,655.5 790.5,656.5C 782.179,671.14 773.346,685.473 764,699.5C 752.809,714.332 738.643,725.165 721.5,732C 701.12,738.641 682.12,736.141 664.5,724.5C 665.239,724.631 665.906,724.464 666.5,724C 665.663,722.989 665.33,721.822 665.5,720.5C 701.517,738.122 732.35,731.456 758,700.5C 768.423,684.928 778.59,669.261 788.5,653.5 Z"/></g>
</svg>
