<?xml version="1.0" encoding="UTF-8"?>
<!DOCTYPE svg PUBLIC "-//W3C//DTD SVG 1.1//EN" "http://www.w3.org/Graphics/SVG/1.1/DTD/svg11.dtd">
<svg xmlns="http://www.w3.org/2000/svg" version="1.1" width="1254px" height="1254px" style="shape-rendering:geometricPrecision; text-rendering:geometricPrecision; image-rendering:optimizeQuality; fill-rule:evenodd; clip-rule:evenodd" xmlns:xlink="http://www.w3.org/1999/xlink">
<g><path style="opacity:1" fill="#e8e8e8" d="M 904.5,649.5 C 906.787,667.086 908.12,684.753 908.5,702.5C 908.352,718.625 906.852,734.625 904,750.5C 897.297,776.767 880.463,791.267 853.5,794C 843.854,795.449 834.854,793.782 826.5,789C 872.209,793.614 897.043,773.114 901,727.5C 901.667,712.833 901.667,698.167 901,683.5C 898.339,660.667 896.173,637.667 894.5,614.5C 895.05,592.23 904.383,574.73 922.5,562C 928.671,558.22 935.004,554.72 941.5,551.5C 921.989,540.488 907.489,524.821 898,504.5C 896.98,499.087 895.647,493.754 894,488.5C 893.218,464.111 893.885,439.778 896,415.5C 896.667,401.5 896.667,387.5 896,373.5C 892.784,353.227 881.617,339.394 862.5,332C 851.544,326.861 840.044,324.694 828,325.5C 826.054,325.237 825.388,324.237 826,322.5C 829.54,320.49 833.373,319.49 837.5,319.5C 859.592,320.582 878.092,329.249 893,345.5C 901.402,358.728 904.902,373.228 903.5,389C 902.106,415.994 900.773,442.994 899.5,470C 900.332,503.844 915.666,528.844 945.5,545C 948.244,545.803 950.911,546.803 953.5,548C 956.1,550.459 956.1,552.959 953.5,555.5C 934.991,560.502 920.158,570.835 909,586.5C 905.672,592.817 903.339,599.484 902,606.5C 901.837,620.882 902.671,635.215 904.5,649.5 Z"/></g>
<g><path style="opacity:1" fill="#ececec" d="M 698.5,560.5 C 713.132,560.27 716.798,566.437 709.5,579C 699.234,582.71 693.734,579.21 693,568.5C 694.243,565.424 696.077,562.757 698.5,560.5 Z"/></g>
<g><path style="opacity:1" fill="#eaeaea" d="M 616.5,560.5 C 629.295,559.44 633.462,564.773 629,576.5C 621.943,582.324 615.943,581.324 611,573.5C 610.416,570.743 610.75,568.077 612,565.5C 613.707,563.963 615.207,562.296 616.5,560.5 Z"/></g>
<g><path style="opacity:1" fill="#e9e9ea" d="M 532.5,560.5 C 542.543,559.378 547.043,563.712 546,573.5C 539.383,582.818 532.716,582.818 526,573.5C 525.949,567.993 528.115,563.659 532.5,560.5 Z"/></g>
<g><path style="opacity:1" fill="#1a1a1a" d="M 620.5,566.5 C 625.677,568.561 625.677,570.894 620.5,573.5C 617.842,571.193 617.842,568.859 620.5,566.5 Z"/></g>
<g><path style="opacity:1" fill="#1e1e1e" d="M 534.5,566.5 C 540.409,567.655 540.909,569.988 536,573.5C 533.287,571.782 532.787,569.448 534.5,566.5 Z"/></g>
<g><path style="opacity:1" fill="#242424" d="M 701.5,566.5 C 707.409,567.655 707.909,569.988 703,573.5C 698.907,571.972 698.407,569.639 701.5,566.5 Z"/></g>
<g><path style="opacity:1" fill="#e6e6e6" d="M 345.5,719.5 C 345.45,703.823 345.783,688.156 346.5,672.5C 348.421,653.532 350.087,634.532 351.5,615.5C 350.9,591.412 339.9,573.912 318.5,563C 312.743,560.124 306.743,557.791 300.5,556C 296.503,552.971 296.67,550.137 301,547.5C 339.27,530.637 356.77,501.303 353.5,459.5C 353.284,440.768 352.118,422.101 350,403.5C 343.095,352.435 365.095,324.435 416,319.5C 419.949,319.57 423.616,320.57 427,322.5C 427.612,324.237 426.946,325.237 425,325.5C 398.633,324.05 377.966,334.05 363,355.5C 358.075,367.292 355.908,379.625 356.5,392.5C 359.085,423.121 360.252,453.788 360,484.5C 358.35,500.457 352.35,514.457 342,526.5C 332.791,536.551 322.291,544.885 310.5,551.5C 345.401,564.977 361.234,590.31 358,627.5C 355.061,654.766 352.894,682.1 351.5,709.5C 352.073,725.843 354.573,741.843 359,757.5C 367.266,774.556 380.766,784.723 399.5,788C 408.533,789.13 417.533,789.63 426.5,789.5C 406.989,796.903 388.322,795.07 370.5,784C 359.899,774.947 352.732,763.78 349,750.5C 347.119,740.262 345.952,729.929 345.5,719.5 Z"/></g>
<g><path style="opacity:1" fill="#181918" d="M 904.5,649.5 C 905.29,650.609 905.79,651.942 906,653.5C 906.667,654.833 907.333,654.833 908,653.5C 908.953,661.179 909.953,668.845 911,676.5C 911.667,681.833 911.667,687.167 911,692.5C 910.667,691.167 910.333,689.833 910,688.5C 909.826,693.351 909.326,698.018 908.5,702.5C 908.12,684.753 906.787,667.086 904.5,649.5 Z"/></g>
<g><path style="opacity:1" fill="#777576" d="M 346.5,672.5 C 345.783,688.156 345.45,703.823 345.5,719.5C 344.834,714.01 344.501,708.343 344.5,702.5C 344.422,692.297 345.088,682.297 346.5,672.5 Z"/></g>
<g><path style="opacity:1" fill="#dddddd" d="M 500.5,880.5 C 574.501,880.333 648.501,880.5 722.5,881C 738.183,881.313 753.85,881.98 769.5,883C 770.308,883.308 770.975,883.808 771.5,884.5C 763.939,886.093 756.272,886.926 748.5,887C 685.663,887.239 622.83,887.739 560,888.5C 534.498,887.726 508.998,886.893 483.5,886C 481.043,884.846 481.043,883.512 483.5,882C 489.348,881.827 495.015,881.327 500.5,880.5 Z"/></g>
</svg>
