<?xml version="1.0" encoding="UTF-8"?>
<!DOCTYPE svg PUBLIC "-//W3C//DTD SVG 1.1//EN" "http://www.w3.org/Graphics/SVG/1.1/DTD/svg11.dtd">
<svg xmlns="http://www.w3.org/2000/svg" version="1.1" width="1254px" height="1254px" style="shape-rendering:geometricPrecision; text-rendering:geometricPrecision; image-rendering:optimizeQuality; fill-rule:evenodd; clip-rule:evenodd" xmlns:xlink="http://www.w3.org/1999/xlink">
<g><path style="opacity:1" fill="#ececec" d="M 730.5,248.5 C 731.302,260.148 731.635,271.815 731.5,283.5C 725.577,321.943 704.91,349.443 669.5,366C 658.273,370.557 646.606,373.057 634.5,373.5C 635.816,403.988 636.816,434.488 637.5,465C 637.065,487.166 636.731,509.333 636.5,531.5C 635.732,530.737 635.232,529.737 635,528.5C 633.536,532.231 632.036,532.065 630.5,528C 630.935,523.429 631.602,518.929 632.5,514.5C 631.604,512.664 630.604,510.997 629.5,509.5C 629.818,495.001 630.151,480.501 630.5,466C 629.323,435.491 627.989,404.991 626.5,374.5C 573.214,373.028 538.38,347.028 522,296.5C 511.199,247.558 525.699,208.058 565.5,178C 604.073,155.342 643.073,154.676 682.5,176C 709.122,193.124 725.122,217.291 730.5,248.5 Z"/></g>
<g><path style="opacity:1" fill="none" d="M 617.5,169.5 C 663.343,167.824 696.176,187.491 716,228.5C 731.946,273.712 722.446,312.546 687.5,345C 659.835,364.335 629.501,370.002 596.5,362C 558.451,349.617 535.618,323.784 528,284.5C 522.664,239.346 539.164,204.846 577.5,181C 590.284,174.788 603.618,170.955 617.5,169.5 Z"/></g>
<g><path style="opacity:1" fill="#919290" d="M 730.5,248.5 C 732.058,254.922 732.724,261.589 732.5,268.5C 732.499,273.678 732.166,278.678 731.5,283.5C 731.635,271.815 731.302,260.148 730.5,248.5 Z"/></g>
<g><path style="opacity:1" fill="#ececec" d="M 525.5,606.5 C 524.761,606.369 524.094,606.536 523.5,607C 525.5,607.667 527.5,608.333 529.5,609C 527.109,609.691 527.109,610.691 529.5,612C 528.409,614.064 528.242,616.231 529,618.5C 529.333,616.833 529.667,615.167 530,613.5C 530.944,614.263 531.444,615.263 531.5,616.5C 530.857,619.884 530.023,623.217 529,626.5C 528.809,624.292 528.309,622.292 527.5,620.5C 527.5,618.167 527.5,615.833 527.5,613.5C 469.681,594.616 411.848,575.616 354,556.5C 330.118,603.032 291.952,623.865 239.5,619C 187.452,608.617 157.619,577.117 150,524.5C 146.957,478.888 164.457,443.722 202.5,419C 239.822,399.202 276.822,399.868 313.5,421C 341.509,440.063 357.675,466.563 362,500.5C 362.667,508.167 362.667,515.833 362,523.5C 360.379,532.564 358.546,541.564 356.5,550.5C 376.569,556.022 396.569,561.855 416.5,568C 452.818,581.16 489.151,593.993 525.5,606.5 Z"/></g>
<g><path style="opacity:1" fill="none" d="M 250.5,413.5 C 315.073,415.741 349.407,449.074 353.5,513.5C 352.203,551.623 335.203,580.456 302.5,600C 267.587,616.374 233.587,614.707 200.5,595C 168.193,569.793 154.36,536.626 159,495.5C 167.143,457.686 189.31,431.853 225.5,418C 233.793,415.466 242.127,413.966 250.5,413.5 Z"/></g>
<g><path style="opacity:1" fill="#adacad" d="M 893.5,491.5 C 892.804,502.152 892.47,512.819 892.5,523.5C 891.834,519.347 891.501,515.013 891.5,510.5C 891.32,503.928 891.986,497.595 893.5,491.5 Z"/></g>
<g><path style="opacity:1" fill="#f9f8f9" d="M 629.5,509.5 C 630.604,510.997 631.604,512.664 632.5,514.5C 631.602,518.929 630.935,523.429 630.5,528C 632.036,532.065 633.536,532.231 635,528.5C 635.232,529.737 635.732,530.737 636.5,531.5C 663.734,534.202 686.567,545.868 705,566.5C 713.44,575.72 720.107,586.054 725,597.5C 726.352,600.72 727.186,604.053 727.5,607.5C 729.216,607.371 730.883,607.038 732.5,606.5C 732.938,606.435 733.272,606.601 733.5,607C 730.453,608.227 729.62,610.06 731,612.5C 732.314,611.687 733.481,610.687 734.5,609.5C 736.064,610.186 737.731,610.019 739.5,609C 741.02,607.77 741.853,606.603 742,605.5C 743.364,606.371 744.53,607.371 745.5,608.5C 740.788,610.6 735.955,612.6 731,614.5C 734.924,644.646 728.59,672.312 712,697.5C 708.017,701.648 703.851,705.648 699.5,709.5C 697.281,708.46 695.281,708.96 693.5,711C 695.948,713.574 695.948,716.074 693.5,718.5C 694.815,720.316 696.315,721.983 698,723.5C 698.692,724.437 698.525,725.103 697.5,725.5C 695.218,722.878 692.885,720.212 690.5,717.5C 677.31,726.431 662.977,732.598 647.5,736C 642.552,737.05 637.552,737.55 632.5,737.5C 624.483,737.499 616.483,737.166 608.5,736.5C 593.387,733.612 579.72,727.445 567.5,718C 565.807,717.516 564.473,718.016 563.5,719.5C 563.528,717.418 562.861,715.584 561.5,714C 562.308,713.692 562.975,713.192 563.5,712.5C 561.914,713.027 560.58,712.361 559.5,710.5C 542.265,695.375 531.765,676.375 528,653.5C 526.634,642.475 526.467,631.475 527.5,620.5C 528.309,622.292 528.809,624.292 529,626.5C 530.023,623.217 530.857,619.884 531.5,616.5C 531.444,615.263 530.944,614.263 530,613.5C 529.667,615.167 529.333,616.833 529,618.5C 528.242,616.231 528.409,614.064 529.5,612C 527.109,610.691 527.109,609.691 529.5,609C 527.5,608.333 525.5,607.667 523.5,607C 524.094,606.536 524.761,606.369 525.5,606.5C 527.086,607.413 528.586,607.413 530,606.5C 538.341,581.824 553.174,561.99 574.5,547C 579.659,544.588 584.659,541.921 589.5,539C 592.432,537.855 595.432,537.022 598.5,536.5C 602.162,536.277 605.495,535.277 608.5,533.5C 608.833,533.5 609.167,533.5 609.5,533.5C 614.414,533.638 619.081,532.972 623.5,531.5C 625.167,531.5 626.833,531.5 628.5,531.5C 628.175,523.981 628.508,516.648 629.5,509.5 Z"/></g>
<g><path style="opacity:1" fill="#a5a4a5" d="M 623.5,531.5 C 619.081,532.972 614.414,533.638 609.5,533.5C 613.943,532.199 618.609,531.532 623.5,531.5 Z"/></g>
<g><path style="opacity:1" fill="#939595" d="M 608.5,533.5 C 605.495,535.277 602.162,536.277 598.5,536.5C 601.505,534.723 604.838,533.723 608.5,533.5 Z"/></g>
<g><path style="opacity:1" fill="#edeeee" d="M 745.5,608.5 C 744.53,607.371 743.364,606.371 742,605.5C 741.853,606.603 741.02,607.77 739.5,609C 737.731,610.019 736.064,610.186 734.5,609.5C 733.481,610.687 732.314,611.687 731,612.5C 729.62,610.06 730.453,608.227 733.5,607C 733.272,606.601 732.938,606.435 732.5,606.5C 787.219,586.659 841.886,566.826 896.5,547C 896.957,546.586 897.291,546.086 897.5,545.5C 894.571,538.45 892.904,531.117 892.5,523.5C 892.47,512.819 892.804,502.152 893.5,491.5C 900.904,454.259 921.904,427.759 956.5,412C 1001.6,396.576 1041.43,405.076 1076,437.5C 1108.2,478.432 1112.2,522.099 1088,568.5C 1058.59,610.614 1018.76,626.114 968.5,615C 936.675,605.682 914.175,585.848 901,555.5C 900.275,554.941 899.442,554.608 898.5,554.5C 882.938,559.724 867.605,565.558 852.5,572C 816.954,584.46 781.287,596.627 745.5,608.5 Z"/></g>
<g><path style="opacity:1" fill="none" d="M 987.5,413.5 C 1034.46,410.717 1067.96,430.384 1088,472.5C 1103.1,516.68 1093.94,554.846 1060.5,587C 1020.22,617.055 979.223,618.055 937.5,590C 905.199,561.761 893.699,526.594 903,484.5C 916.492,443.049 944.659,419.382 987.5,413.5 Z"/></g>
<g><path style="opacity:1" fill="#7c7c7c" d="M 608.5,736.5 C 616.483,737.166 624.483,737.499 632.5,737.5C 629.686,738.165 626.686,738.498 623.5,738.5C 618.255,738.608 613.255,737.942 608.5,736.5 Z"/></g>
<g><path style="opacity:1" fill="#ededed" d="M 699.5,709.5 C 697.887,710.838 697.387,712.505 698,714.5C 731.016,756.037 763.182,798.204 794.5,841C 836.866,814.818 879.199,815.151 921.5,842C 943.999,859.17 957.666,881.67 962.5,909.5C 963.802,922.168 963.802,934.835 962.5,947.5C 952.138,994.362 923.471,1023.2 876.5,1034C 829.074,1040.65 792.24,1024.15 766,984.5C 760.139,973.747 755.973,962.414 753.5,950.5C 753.435,947.572 752.768,944.905 751.5,942.5C 748.155,908.89 757.655,879.556 780,854.5C 782.971,851.94 785.804,849.273 788.5,846.5C 759.296,805.299 728.963,764.965 697.5,725.5C 698.525,725.103 698.692,724.437 698,723.5C 696.315,721.983 694.815,720.316 693.5,718.5C 695.948,716.074 695.948,713.574 693.5,711C 695.281,708.96 697.281,708.46 699.5,709.5 Z"/></g>
<g><path style="opacity:1" fill="none" d="M 953.5,908.5 C 953.376,914.069 954.043,919.402 955.5,924.5C 955.633,957.948 942.967,985.448 917.5,1007C 884.699,1029.14 850.032,1032.47 813.5,1017C 785.67,1002.19 768.337,979.357 761.5,948.5C 761.149,944.316 760.482,940.316 759.5,936.5C 758.818,890.35 779.152,857.183 820.5,837C 857.001,824.935 890.667,830.269 921.5,853C 938.757,867.744 949.423,886.244 953.5,908.5 Z"/></g>
<g><path style="opacity:1" fill="#ededed" d="M 559.5,710.5 C 560.58,712.361 561.914,713.027 563.5,712.5C 562.975,713.192 562.308,713.692 561.5,714C 562.861,715.584 563.528,717.418 563.5,719.5C 532.93,762.296 502.597,805.296 472.5,848.5C 499.954,876.602 510.954,910.268 505.5,949.5C 504.132,953.298 503.132,957.298 502.5,961.5C 484.024,1012.1 447.691,1036.93 393.5,1036C 352.313,1031.33 322.479,1010.5 304,973.5C 299.134,962.367 296.3,950.7 295.5,938.5C 295.249,927.097 295.916,915.764 297.5,904.5C 306.721,868.428 328.721,843.262 363.5,829C 399.498,817.143 433.165,821.809 464.5,843C 465.5,843.667 466.5,843.667 467.5,843C 499.065,799.34 529.731,755.173 559.5,710.5 Z"/></g>
<g><path style="opacity:1" fill="none" d="M 306.5,903.5 C 307.924,901.485 308.59,899.152 308.5,896.5C 329.006,847.737 365.672,826.57 418.5,833C 463.861,842.898 490.361,870.732 498,916.5C 501.54,958.914 485.707,991.748 450.5,1015C 412.543,1033.85 376.21,1031.18 341.5,1007C 309.351,979.385 297.684,944.885 306.5,903.5 Z"/></g>
<g><path style="opacity:1" fill="#4e4f4f" d="M 308.5,896.5 C 308.59,899.152 307.924,901.485 306.5,903.5C 306.41,900.848 307.076,898.515 308.5,896.5 Z"/></g>
<g><path style="opacity:1" fill="#929191" d="M 962.5,909.5 C 965.138,922.17 965.138,934.837 962.5,947.5C 963.802,934.835 963.802,922.168 962.5,909.5 Z"/></g>
<g><path style="opacity:1" fill="#484849" d="M 953.5,908.5 C 954.957,913.598 955.624,918.931 955.5,924.5C 954.043,919.402 953.376,914.069 953.5,908.5 Z"/></g>
<g><path style="opacity:1" fill="#8d8c8d" d="M 297.5,904.5 C 295.916,915.764 295.249,927.097 295.5,938.5C 294.345,931.345 294.178,924.012 295,916.5C 295.335,912.264 296.168,908.264 297.5,904.5 Z"/></g>
<g><path style="opacity:1" fill="#999a9a" d="M 759.5,936.5 C 760.482,940.316 761.149,944.316 761.5,948.5C 759.75,944.817 759.083,940.817 759.5,936.5 Z"/></g>
<g><path style="opacity:1" fill="#757677" d="M 751.5,942.5 C 752.768,944.905 753.435,947.572 753.5,950.5C 751.96,948.162 751.294,945.495 751.5,942.5 Z"/></g>
<g><path style="opacity:1" fill="#363736" d="M 505.5,949.5 C 505.95,953.988 504.95,957.988 502.5,961.5C 503.132,957.298 504.132,953.298 505.5,949.5 Z"/></g>
</svg>
