<?xml version="1.0" encoding="UTF-8"?>
<!DOCTYPE svg PUBLIC "-//W3C//DTD SVG 1.1//EN" "http://www.w3.org/Graphics/SVG/1.1/DTD/svg11.dtd">
<svg xmlns="http://www.w3.org/2000/svg" version="1.1" width="1254px" height="1254px" style="shape-rendering:geometricPrecision; text-rendering:geometricPrecision; image-rendering:optimizeQuality; fill-rule:evenodd; clip-rule:evenodd" xmlns:xlink="http://www.w3.org/1999/xlink">
<g><path style="opacity:1" fill="#e6e6e6" d="M 616.5,291.5 C 618.833,291.5 621.167,291.5 623.5,291.5C 623.802,288.941 623.468,286.607 622.5,284.5C 621.867,272.502 621.7,260.502 622,248.5C 623.768,244.675 625.768,244.675 628,248.5C 629.071,262.49 629.904,276.49 630.5,290.5C 644.833,289.913 659.166,289.746 673.5,290C 676.326,292.522 675.993,294.522 672.5,296C 658.519,297.205 644.519,298.038 630.5,298.5C 631.47,313.155 631.637,327.822 631,342.5C 629.333,343.833 627.667,343.833 626,342.5C 624.336,327.881 623.503,313.215 623.5,298.5C 609.517,299.666 595.517,300.166 581.5,300C 579.398,298.267 579.065,296.267 580.5,294C 592.426,292.1 604.426,291.267 616.5,291.5 Z"/></g>
<g><path style="opacity:1" fill="#4e4d4f" d="M 622.5,284.5 C 623.468,286.607 623.802,288.941 623.5,291.5C 621.167,291.5 618.833,291.5 616.5,291.5C 618.265,290.539 620.265,290.205 622.5,290.5C 622.5,288.5 622.5,286.5 622.5,284.5 Z"/></g>
<g><path style="opacity:1" fill="#e5e5e6" d="M 693.5,516.5 C 694.33,525.347 695.164,534.347 696,543.5C 698.206,552.198 700.54,560.865 703,569.5C 715.68,596.503 728.514,623.503 741.5,650.5C 739.716,649.044 737.716,648.044 735.5,647.5C 735.5,649.833 735.5,652.167 735.5,654.5C 725.036,633.571 714.536,612.571 704,591.5C 692.602,566.788 687.102,540.788 687.5,513.5C 688.327,518.985 688.827,524.652 689,530.5C 689.667,529.167 690.333,529.167 691,530.5C 691.333,523.5 691.667,516.5 692,509.5C 692.333,516.167 692.667,522.833 693,529.5C 693.499,525.179 693.666,520.846 693.5,516.5 Z"/></g>
<g><path style="opacity:1" fill="#eaeaea" d="M 693.5,516.5 C 693.666,520.846 693.499,525.179 693,529.5C 692.667,522.833 692.333,516.167 692,509.5C 691.667,516.5 691.333,523.5 691,530.5C 690.333,529.167 689.667,529.167 689,530.5C 688.827,524.652 688.327,518.985 687.5,513.5C 686.336,484.003 686.169,454.336 687,424.5C 687.5,424 688,423.5 688.5,423C 702.717,422.033 709.051,414.533 707.5,400.5C 706.5,400 705.5,399.5 704.5,399C 694.488,398.7 684.488,398.2 674.5,397.5C 646.521,398.606 618.521,398.606 590.5,397.5C 578.5,397.667 566.5,397.833 554.5,398C 551.888,398.639 549.554,399.806 547.5,401.5C 544.541,408.827 546.208,414.994 552.5,420C 557.092,421.764 561.592,423.598 566,425.5C 566.422,449.002 566.922,472.502 567.5,496C 567.283,514.202 566.449,532.369 565,550.5C 562.535,561.894 558.869,572.894 554,583.5C 511.533,667.437 470.533,752.437 431,838.5C 427.714,847.643 425.047,856.976 423,866.5C 420.191,882.266 423.525,896.599 433,909.5C 448.895,926.854 468.728,935.02 492.5,934C 579.849,934.373 667.183,934.373 754.5,934C 766.67,933.547 778.67,931.881 790.5,929C 815.279,921.441 828.945,904.775 831.5,879C 829.575,859.894 824.408,841.727 816,824.5C 788.779,767.737 761.946,711.07 735.5,654.5C 735.5,652.167 735.5,649.833 735.5,647.5C 737.716,648.044 739.716,649.044 741.5,650.5C 771.804,712.775 801.304,775.442 830,838.5C 837.366,856.601 839.366,875.268 836,894.5C 828.859,914.974 815.026,928.807 794.5,936C 786.574,937.765 778.574,939.099 770.5,940C 691.996,941.668 613.496,942.501 535,942.5C 511.417,942.16 487.917,940.66 464.5,938C 440.647,931.668 424.814,916.835 417,893.5C 415.481,884.219 415.147,874.886 416,865.5C 417.854,855.937 420.521,846.604 424,837.5C 463.079,752.01 503.746,667.343 546,583.5C 554.154,566.488 558.821,548.488 560,529.5C 560.5,496.168 560.667,462.835 560.5,429.5C 547.011,428.346 539.345,421.013 537.5,407.5C 538.59,397.91 543.923,392.41 553.5,391C 602.5,390.333 651.5,390.333 700.5,391C 704.305,391.534 707.971,392.534 711.5,394C 717.589,406.329 715.255,416.996 704.5,426C 700.835,427.278 697.168,428.444 693.5,429.5C 693.5,458.5 693.5,487.5 693.5,516.5 Z"/></g>
<g><path style="opacity:1" fill="#e9e9e9" d="M 625.5,853.5 C 641.018,853.516 648.518,861.183 648,876.5C 642.298,890.737 632.464,894.57 618.5,888C 608.21,878.312 607.877,868.312 617.5,858C 620.099,856.205 622.766,854.705 625.5,853.5 Z"/></g>
<g><path style="opacity:1" fill="#e9e9e9" d="M 702.5,810.5 C 718.869,810.031 725.036,817.698 721,833.5C 716.152,841.056 709.318,843.556 700.5,841C 690.6,835.63 688.1,827.797 693,817.5C 695.529,814.115 698.696,811.782 702.5,810.5 Z"/></g>
<g><path style="opacity:1" fill="#ececed" d="M 571.5,777.5 C 580.193,776.43 586.693,779.763 591,787.5C 593.167,804 586,811.167 569.5,809C 559.981,804.771 556.814,797.604 560,787.5C 562.657,782.621 566.491,779.287 571.5,777.5 Z"/></g>
<g><path style="opacity:1" fill="#e8e8e8" d="M 585.5,707.5 C 594.294,708.594 602.96,710.428 611.5,713C 624.622,719.895 637.955,726.229 651.5,732C 669.341,738.625 687.675,740.291 706.5,737C 722.656,733.607 738.322,728.773 753.5,722.5C 757.098,724.354 757.432,726.854 754.5,730C 726.595,743.036 697.262,747.702 666.5,744C 658.018,741.796 649.685,739.13 641.5,736C 623.241,725.043 603.574,717.71 582.5,714C 569.758,713.155 557.091,713.822 544.5,716C 528.998,719.709 513.665,724.042 498.5,729C 496.19,729.497 493.857,729.663 491.5,729.5C 490.725,725.818 492.059,723.318 495.5,722C 513.29,715.469 531.623,710.969 550.5,708.5C 562.152,707.767 573.819,707.434 585.5,707.5 Z"/></g>
<g><path style="opacity:1" fill="#a1a2a1" d="M 585.5,707.5 C 573.819,707.434 562.152,707.767 550.5,708.5C 557.27,706.999 564.27,706.333 571.5,706.5C 576.346,706.501 581.012,706.834 585.5,707.5 Z"/></g>
</svg>
